<svg width="338" height="140" viewBox="0 0 338 140" fill="none" xmlns="http://www.w3.org/2000/svg">
<path d="M21.3402 53.1568H20.6723L20.6189 52.5691C20.5477 51.8389 20.4586 51.2869 20.3518 50.9129C20.2271 50.5211 19.9778 50.254 19.6038 50.1115C19.212 49.9512 18.5798 49.8711 17.7072 49.8711H3.01487L3.01487 53.6376C3.01487 54.4568 3.17515 55.1069 3.49571 55.5877C3.79846 56.0507 4.2971 56.4603 4.99165 56.8165C5.68619 57.1549 6.61226 57.5556 7.76983 58.0186L7.63626 58.5796L4.35053 57.9117L2.21347 57.6179L2.29361 50.0047L2.29361 47.4669L2.21347 39.827L4.35053 39.5331L7.63626 38.8653L7.79654 39.453C6.76363 39.8626 5.891 40.2455 5.17864 40.6016C4.46629 40.94 3.93202 41.3407 3.57584 41.8037C3.20186 42.2668 3.01487 42.8812 3.01487 43.6469L3.01487 47.6005H17.7072C18.5798 47.6005 19.212 47.5292 19.6038 47.3868C19.9778 47.2265 20.2271 46.9505 20.3518 46.5587C20.4586 46.1669 20.5477 45.6148 20.6189 44.9024L20.6723 44.3148H21.3402L21.26 48.669L21.3402 53.1568Z" fill="#02161D"/>
<path d="M21.3402 37.7129H20.6723L20.6189 37.1786C20.5477 36.5553 20.4586 36.0834 20.3518 35.7628C20.2271 35.4244 19.9778 35.1929 19.6038 35.0683C19.212 34.9436 18.5798 34.8813 17.7072 34.8813H5.84647C4.95603 34.8813 4.32382 34.9436 3.94983 35.0683C3.57584 35.1929 3.33543 35.4244 3.22857 35.7628C3.10391 36.0834 3.00596 36.5553 2.93473 37.1786L2.8813 37.7129H2.21347L2.29361 33.7593V33.7326L2.21347 29.7791H2.8813L2.93473 30.3133C3.00596 30.9188 3.10391 31.3908 3.22857 31.7291C3.33542 32.0675 3.57584 32.299 3.94983 32.4237C4.32382 32.5483 4.95603 32.6107 5.84647 32.6107H11.0021V22.433H5.84647C4.95603 22.433 4.32382 22.4953 3.94983 22.62C3.57584 22.7446 3.33542 22.9761 3.22857 23.3145C3.10391 23.6351 3.00596 24.107 2.93472 24.7303L2.8813 25.2646H2.21347L2.29361 21.311V21.2843L2.21347 17.3308H2.8813L2.93472 17.865C3.00596 18.4705 3.10391 18.9424 3.22857 19.2808C3.33542 19.6192 3.57584 19.8507 3.94983 19.9754C4.32382 20.1 4.95603 20.1623 5.84647 20.1623L17.7072 20.1623C18.5798 20.1623 19.212 20.1 19.6038 19.9754C19.9778 19.8507 20.2271 19.6192 20.3518 19.2808C20.4586 18.9424 20.5477 18.4705 20.6189 17.865L20.6723 17.3308H21.3402L21.26 21.2843V21.311L21.3402 25.2645H20.6723L20.6189 24.7303C20.5477 24.107 20.4586 23.635 20.3518 23.3145C20.2271 22.9761 19.9778 22.7446 19.6038 22.62C19.212 22.4953 18.5798 22.433 17.7072 22.433L11.857 22.433V32.6107H17.7072C18.5798 32.6107 19.212 32.5483 19.6038 32.4237C19.9778 32.299 20.2271 32.0675 20.3518 31.7291C20.4586 31.3908 20.5477 30.9188 20.6189 30.3133L20.6723 29.7791L21.3402 29.7791L21.26 33.7326V33.7593L21.3402 37.7129Z" fill="#02161D"/>
<path d="M21.3402 15.1998H20.6723L20.6189 14.6655C20.5477 14.0422 20.4586 13.5703 20.3518 13.2497C20.2271 12.9113 19.9778 12.6798 19.6038 12.5552C19.212 12.4305 18.5798 12.3682 17.7072 12.3682H5.84647C4.95603 12.3682 4.32382 12.4305 3.94983 12.5552C3.57584 12.6798 3.33542 12.9113 3.22857 13.2497C3.10391 13.5703 3.00596 14.0422 2.93472 14.6655L2.8813 15.1998H2.21347L2.29361 11.2462L2.29361 0.881533L4.21696 0.828107L6.67458 0.614402V1.25552C5.87319 1.38018 5.23207 1.54936 4.75123 1.76307C4.27039 1.95896 3.91421 2.2439 3.6827 2.61789C3.43337 2.99187 3.27309 3.49942 3.20186 4.14053C3.11281 4.76384 3.06829 5.57414 3.06829 6.57143L3.06829 10.0976L10.8953 10.0976V7.10569C10.8953 6.74951 10.8151 6.43786 10.6549 6.17073C10.4768 5.9036 10.1562 5.68989 9.69319 5.52961C9.23016 5.35153 8.56232 5.24467 7.68969 5.20906V4.54123L11.2693 4.62137L15.2228 4.54123V5.20906C13.9228 5.20906 13.0056 5.36934 12.4714 5.68989C11.9193 6.01045 11.6433 6.48238 11.6433 7.10569V10.0976H18.4017C19.2565 10.0976 19.8264 9.91056 20.1114 9.53658C20.3785 9.1626 20.5121 8.46806 20.5121 7.45296V4.96864C20.5121 3.93573 20.3963 3.13434 20.1648 2.56446C19.9333 1.97677 19.4702 1.54046 18.7757 1.25552C18.0633 0.970577 17.0215 0.77468 15.6502 0.667827V0L18.8558 0.186991L21.26 0.267131V11.2462L21.3402 15.1998Z" fill="#02161D"/>
<path d="M75.2209 57.0024C72.4223 57.0024 70.3362 56.061 68.9623 54.1784C67.6394 52.2449 66.7744 49.8789 66.3673 47.0803C66.1129 45.0451 65.7059 43.0098 65.1461 40.9745C64.6373 38.9392 63.7978 37.082 62.6275 35.4029C61.5081 33.6729 59.9053 32.2991 57.8191 31.2814C55.7838 30.2638 53.1124 29.755 49.8051 29.755H46.5232V46.0118C46.5232 48.505 46.7013 50.3114 47.0574 51.4308C47.4136 52.4993 48.0751 53.2116 49.0419 53.5678C50.0086 53.8731 51.357 54.1275 53.087 54.331L54.6135 54.4837V56.3918L43.3176 56.1628H43.2413L31.9454 56.3918V54.4837L33.4718 54.331C35.2527 54.1275 36.6011 53.8731 37.517 53.5678C38.4837 53.2116 39.1452 52.4993 39.5014 51.4308C39.8576 50.3114 40.0357 48.505 40.0357 46.0118V12.1243C40.0357 9.58022 39.8576 7.7739 39.5014 6.70538C39.1452 5.63685 38.4837 4.94995 37.517 4.64465C36.6011 4.28848 35.2527 4.00862 33.4718 3.8051L31.9454 3.65245V1.74437L43.2413 1.97334H53.9266C57.3866 1.97334 60.5922 2.3804 63.5434 3.19451C66.4945 3.95774 68.8606 5.30612 70.6415 7.23964C72.4732 9.17316 73.3891 11.8699 73.3891 15.3299C73.3891 18.3828 72.7022 20.876 71.3284 22.8096C70.0054 24.6922 68.2245 26.1423 65.9857 27.16C63.7978 28.1268 61.4063 28.8137 58.8113 29.2207C62.5766 29.4751 65.6295 30.7726 67.9701 33.1132C70.3616 35.4029 71.8881 38.7866 72.5495 43.2642C73.0075 46.1136 73.5672 48.3524 74.2287 49.9806C74.941 51.558 75.7043 52.6774 76.5184 53.3388C77.3834 53.9494 78.2484 54.2547 79.1134 54.2547C79.6731 54.2547 80.2074 54.153 80.7162 53.9494C81.2759 53.7459 81.7593 53.5424 82.1663 53.3388L82.7006 55.2469C81.8865 55.654 80.7925 56.0356 79.4187 56.3918C78.0449 56.7988 76.6456 57.0024 75.2209 57.0024ZM54.0792 3.95774H46.5232V27.6943H52.9344C57.8191 27.6943 61.2282 26.702 63.1617 24.7176C65.1462 22.7332 66.1384 19.7566 66.1384 15.7878C66.1384 12.0226 65.2479 9.12228 63.467 7.087C61.6861 5.00083 58.5569 3.95774 54.0792 3.95774Z" fill="#02161D"/>
<path d="M102.111 57.0024C98.7524 57.0024 95.8267 56.29 93.3334 54.8653C90.8402 53.3897 88.8812 51.3799 87.4565 48.8358C86.0827 46.2408 85.3958 43.2896 85.3958 39.9823C85.3958 36.4205 86.159 33.2658 87.6855 30.5182C89.212 27.7197 91.2473 25.5318 93.7914 23.9544C96.3864 22.3262 99.2358 21.5121 102.34 21.5121C106.258 21.5121 109.311 22.7587 111.498 25.2519C113.737 27.7451 114.857 31.027 114.857 35.0976C114.857 35.7082 114.831 36.217 114.78 36.6241C114.729 37.0311 114.679 37.311 114.628 37.4636H91.578C91.5271 38.176 91.5017 38.8883 91.5017 39.6007C91.5017 42.2974 91.9342 44.8161 92.7992 47.1567C93.6642 49.4464 94.9617 51.2781 96.6917 52.6519C98.4726 54.0257 100.635 54.7127 103.179 54.7127C105.571 54.7127 107.682 54.0512 109.514 52.7283C111.397 51.3544 112.847 49.3446 113.865 46.6987L115.696 47.3856C113.559 53.7968 109.031 57.0024 102.111 57.0024ZM102.34 23.4202C99.1849 23.4202 96.7171 24.5396 94.9362 26.7784C93.2062 29.0172 92.1377 31.9938 91.7306 35.7082H101.424C103.713 35.7082 105.443 35.4538 106.614 34.945C107.835 34.3853 108.649 33.7238 109.056 32.9605C109.514 32.1464 109.743 31.3578 109.743 30.5945C109.743 28.3557 108.98 26.6003 107.453 25.3282C105.927 24.0562 104.222 23.4202 102.34 23.4202Z" fill="#02161D"/>
<path d="M119.479 56.3918V54.6363L120.7 54.4837C122.176 54.2802 123.295 54.0512 124.058 53.7968C124.873 53.4915 125.432 52.8555 125.738 51.8887C126.043 50.8711 126.196 49.2174 126.196 46.9277V9.68198C126.196 7.03611 125.636 5.357 124.516 4.64465C123.448 3.88142 121.947 3.4998 120.013 3.4998H119.479V1.74437C121.565 1.74437 123.575 1.69349 125.509 1.59172C127.442 1.43908 129.452 1.18467 131.538 0.828494V46.9277C131.538 49.2174 131.691 50.8711 131.996 51.8887C132.301 52.8555 132.836 53.4915 133.599 53.7968C134.413 54.0512 135.558 54.2802 137.033 54.4837L138.255 54.6363V56.3918L128.867 56.1628L119.479 56.3918Z" fill="#02161D"/>
<path d="M141.565 56.3918V54.6363L142.786 54.4837C144.261 54.2802 145.381 54.0512 146.144 53.7968C146.958 53.4915 147.518 52.8555 147.823 51.8887C148.128 50.8711 148.281 49.2174 148.281 46.9277V30.8235C148.281 28.1776 147.721 26.4985 146.602 25.7862C145.533 25.0229 144.032 24.6413 142.099 24.6413H141.565V22.8859C143.651 22.8859 145.661 22.835 147.594 22.7332C149.528 22.5806 151.538 22.3262 153.624 21.97V46.9277C153.624 49.2174 153.776 50.8711 154.082 51.8887C154.387 52.8555 154.921 53.4915 155.685 53.7968C156.499 54.0512 157.643 54.2802 159.119 54.4837L160.34 54.6363V56.3918L150.952 56.1628L141.565 56.3918ZM150.037 13.0402C148.714 13.0402 147.671 12.5823 146.907 11.6664C146.144 10.7505 145.762 9.65654 145.762 8.38449C145.762 7.06155 146.144 5.96759 146.907 5.10259C147.671 4.18671 148.714 3.72877 150.037 3.72877C151.512 3.72877 152.581 4.18671 153.242 5.10259C153.954 5.96759 154.311 7.06155 154.311 8.38449C154.311 9.65654 153.954 10.7505 153.242 11.6664C152.581 12.5823 151.512 13.0402 150.037 13.0402Z" fill="#02161D"/>
<path d="M180.351 46.0881C178.621 46.0881 176.942 45.8337 175.313 45.3249C173.94 45.6302 172.642 46.1645 171.421 46.9277C170.251 47.64 169.665 48.6068 169.665 49.828C169.665 50.8965 170.047 51.7106 170.81 52.2703C171.574 52.7791 172.566 53.1353 173.787 53.3388C175.008 53.4915 176.331 53.6187 177.756 53.7205L181.114 53.8731C184.32 54.0257 187.22 54.3819 189.815 54.9416C192.41 55.4504 194.471 56.4681 195.997 57.9946C197.574 59.521 198.363 61.8616 198.363 65.0163C198.363 67.9166 197.498 70.3589 195.768 72.3433C194.089 74.3786 191.876 75.9305 189.128 76.999C186.431 78.0676 183.505 78.6018 180.351 78.6018C177.196 78.6018 174.194 78.1693 171.345 77.3043C168.546 76.4393 166.256 75.1164 164.475 73.3355C162.745 71.5546 161.88 69.2649 161.88 66.4664C161.88 64.8382 162.262 63.4898 163.025 62.4213C163.839 61.3528 164.882 60.8185 166.155 60.8185C167.02 60.8185 167.757 61.0475 168.368 61.5054C168.979 62.0142 169.284 62.752 169.284 63.7188C169.284 64.5838 169.131 65.2707 168.826 65.7795C168.521 66.3392 168.19 66.8989 167.834 67.4586C167.528 68.0183 167.376 68.7307 167.376 69.5957C167.376 71.3257 167.961 72.6995 169.131 73.7171C170.352 74.7857 171.93 75.5489 173.863 76.0068C175.848 76.4648 178.01 76.6937 180.351 76.6937C182.946 76.6937 185.337 76.3121 187.525 75.5489C189.713 74.7857 191.469 73.6408 192.792 72.1143C194.165 70.6388 194.852 68.807 194.852 66.6191C194.852 64.3294 193.936 62.6503 192.105 61.5817C190.324 60.5641 187.551 59.9535 183.785 59.75L176 59.3684C174.474 59.2666 172.846 59.0631 171.116 58.7578C169.436 58.4525 168.012 57.8165 166.841 56.8497C165.671 55.9338 165.086 54.5346 165.086 52.6519C165.086 50.6675 165.9 48.9375 167.528 47.462C169.208 45.9864 171.065 44.9687 173.1 44.409C171.065 43.3405 169.411 41.8904 168.139 40.0586C166.867 38.2268 166.231 36.1407 166.231 33.8001C166.231 31.4595 166.841 29.3734 168.063 27.5416C169.335 25.7099 171.039 24.2597 173.176 23.1912C175.313 22.0718 177.705 21.5121 180.351 21.5121C183.404 21.5121 186.126 22.2499 188.517 23.7254C189.586 22.2499 190.883 21.2068 192.41 20.5962C193.936 19.9347 195.463 19.604 196.989 19.604C198.567 19.604 199.915 20.0111 201.034 20.8252C202.205 21.5884 202.79 22.6315 202.79 23.9544C202.79 25.0229 202.434 25.8625 201.721 26.4731C201.06 27.0328 200.322 27.3126 199.508 27.3126C197.625 27.3126 196.48 26.2441 196.073 24.1071C195.972 23.4965 195.743 22.9877 195.387 22.5806C195.081 22.1735 194.598 21.97 193.936 21.97C193.122 21.97 192.359 22.2753 191.647 22.8859C190.985 23.4456 190.425 24.0562 189.968 24.7176C191.341 25.8371 192.435 27.1854 193.249 28.7628C194.064 30.3401 194.471 32.0192 194.471 33.8001C194.471 36.0898 193.835 38.176 192.563 40.0586C191.341 41.8904 189.662 43.3659 187.525 44.4854C185.388 45.5539 182.997 46.0881 180.351 46.0881ZM180.351 44.1801C183.353 44.1801 185.464 43.1879 186.686 41.2035C187.958 39.2191 188.594 36.7513 188.594 33.8001C188.594 30.8489 187.958 28.3812 186.686 26.3968C185.464 24.4124 183.353 23.4202 180.351 23.4202C177.4 23.4202 175.288 24.4124 174.016 26.3968C172.744 28.3812 172.108 30.8489 172.108 33.8001C172.108 36.7513 172.744 39.2191 174.016 41.2035C175.288 43.1879 177.4 44.1801 180.351 44.1801Z" fill="#02161D"/>
<path d="M205.516 56.3918V54.6363L206.737 54.4837C208.212 54.2802 209.332 54.0512 210.095 53.7968C210.909 53.4915 211.469 52.8555 211.774 51.8887C212.079 50.8711 212.232 49.2174 212.232 46.9277V30.8235C212.232 28.1776 211.672 26.4985 210.553 25.7862C209.484 25.0229 207.983 24.6413 206.05 24.6413H205.516V22.8859C207.602 22.8859 209.612 22.835 211.545 22.7332C213.479 22.5806 215.488 22.3262 217.575 21.97V46.9277C217.575 49.2174 217.727 50.8711 218.033 51.8887C218.338 52.8555 218.872 53.4915 219.635 53.7968C220.45 54.0512 221.594 54.2802 223.07 54.4837L224.291 54.6363V56.3918L214.903 56.1628L205.516 56.3918ZM213.987 13.0402C212.665 13.0402 211.621 12.5823 210.858 11.6664C210.095 10.7505 209.713 9.65654 209.713 8.38449C209.713 7.06155 210.095 5.96759 210.858 5.10259C211.621 4.18671 212.665 3.72877 213.987 3.72877C215.463 3.72877 216.532 4.18671 217.193 5.10259C217.905 5.96759 218.262 7.06155 218.262 8.38449C218.262 9.65654 217.905 10.7505 217.193 11.6664C216.532 12.5823 215.463 13.0402 213.987 13.0402Z" fill="#02161D"/>
<path d="M246.057 57.0024C242.801 57.0024 239.824 56.2137 237.127 54.6363C234.481 53.059 232.37 50.9474 230.792 48.3015C229.266 45.6048 228.503 42.6282 228.503 39.3717C228.503 36.0135 229.266 32.986 230.792 30.2892C232.37 27.5925 234.481 25.4554 237.127 23.8781C239.824 22.3007 242.801 21.5121 246.057 21.5121C249.364 21.5121 252.341 22.3007 254.987 23.8781C257.633 25.4554 259.719 27.5925 261.245 30.2892C262.823 32.986 263.612 36.0135 263.612 39.3717C263.612 42.6282 262.823 45.6048 261.245 48.3015C259.719 50.9474 257.633 53.059 254.987 54.6363C252.341 56.2137 249.364 57.0024 246.057 57.0024ZM246.057 55.0943C248.805 55.0943 251.018 54.4074 252.697 53.0336C254.376 51.6089 255.598 49.7262 256.361 47.3856C257.124 44.9942 257.506 42.3229 257.506 39.3717C257.506 36.3188 257.124 33.5966 256.361 31.2051C255.598 28.8137 254.376 26.931 252.697 25.5572C251.018 24.1325 248.805 23.4202 246.057 23.4202C243.309 23.4202 241.096 24.1325 239.417 25.5572C237.738 26.931 236.517 28.8137 235.753 31.2051C234.99 33.5966 234.609 36.3188 234.609 39.3717C234.609 42.3229 234.99 44.9942 235.753 47.3856C236.517 49.7262 237.738 51.6089 239.417 53.0336C241.096 54.4074 243.309 55.0943 246.057 55.0943Z" fill="#02161D"/>
<path d="M285.196 57.0024C281.889 57.0024 279.268 56.1882 277.335 54.56C275.452 52.8809 274.511 50.4131 274.511 47.1567V32.35C274.511 30.0603 274.358 28.432 274.053 27.4653C273.748 26.4476 273.188 25.7862 272.374 25.4809C271.611 25.1756 270.491 24.9466 269.016 24.794L267.794 24.6413V22.8859L277.182 23.1149L279.854 23.0385V46.8514C279.854 49.3446 280.49 51.2527 281.762 52.5756C283.034 53.8985 284.764 54.56 286.952 54.56C288.834 54.56 290.488 54.153 291.913 53.3388C293.388 52.4738 294.635 51.3799 295.653 50.0569C296.721 48.734 297.561 47.3856 298.171 46.0118V32.35C298.171 30.0603 298.019 28.432 297.713 27.4653C297.408 26.4476 296.848 25.7862 296.034 25.4809C295.271 25.1756 294.152 24.9466 292.676 24.794L291.455 24.6413V22.8859L300.843 23.1149L303.514 23.0385V47.6909C303.514 49.6244 303.743 51.0746 304.201 52.0413C304.71 52.9572 305.422 53.5678 306.338 53.8731C307.305 54.1784 308.475 54.331 309.849 54.331V56.0865C307.763 56.0865 305.855 56.1119 304.125 56.1628C302.395 56.2137 300.41 56.4426 298.171 56.8497V49.828C297.662 50.6421 297.128 51.3544 296.568 51.965C295.246 53.4406 293.643 54.6618 291.76 55.6285C289.877 56.5444 287.689 57.0024 285.196 57.0024Z" fill="#02161D"/>
<path d="M326.815 57.0024C324.881 57.0024 323.227 56.7734 321.854 56.3154C320.531 55.9084 319.488 55.5268 318.724 55.1706C317.91 54.7635 317.401 54.56 317.198 54.56C316.994 54.56 316.816 54.6618 316.664 54.8653C316.562 55.0179 316.435 55.4505 316.282 56.1628H314.527L314.832 51.1255L315.061 44.638H316.74L316.816 45.9355C316.918 47.3602 317.376 48.7849 318.19 50.2096C319.055 51.6343 320.225 52.83 321.701 53.7968C323.177 54.7635 324.881 55.2469 326.815 55.2469C328.901 55.2469 330.58 54.7127 331.852 53.6441C333.124 52.5756 333.76 51.1 333.76 49.2174C333.76 47.5892 333.099 46.2153 331.776 45.0959C330.504 43.9765 328.723 42.9843 326.433 42.1193L323.685 41.0508C321.04 40.0332 319.03 38.7611 317.656 37.2346C316.333 35.7082 315.671 33.7492 315.671 31.3578C315.671 29.3225 316.129 27.5925 317.045 26.1678C318.012 24.6922 319.259 23.5474 320.785 22.7332C322.362 21.9191 324.042 21.5121 325.822 21.5121C327.095 21.5121 328.163 21.6647 329.028 21.97C329.944 22.2753 330.707 22.5806 331.318 22.8859C331.827 23.1403 332.259 23.2675 332.615 23.2675C333.124 23.2675 333.531 22.7332 333.836 21.6647L335.516 21.741L335.21 26.7021V32.0447H333.455C333.099 29.6532 332.285 27.5925 331.012 25.8625C329.74 24.0816 327.909 23.1912 325.517 23.1912C323.838 23.1912 322.413 23.7254 321.243 24.794C320.124 25.8625 319.564 27.2109 319.564 28.8391C319.564 30.4164 320.149 31.7394 321.319 32.8079C322.541 33.8255 324.194 34.7414 326.28 35.5555L329.257 36.7004C332.361 37.8707 334.498 39.2954 335.668 40.9745C336.889 42.6027 337.5 44.5617 337.5 46.8514C337.5 49.5481 336.584 51.9141 334.752 53.9494C332.921 55.9847 330.275 57.0024 326.815 57.0024Z" fill="#02161D"/>
<path d="M13.3281 125.42C11.9543 125.42 10.7007 125.197 9.56725 124.751C8.46819 124.304 7.47217 123.858 6.57918 123.411C5.82358 122.999 5.18818 122.69 4.673 122.484C4.19216 122.278 3.76284 122.175 3.38503 122.175C2.9042 122.175 2.56074 122.381 2.35467 122.793C2.18294 123.171 2.04555 123.6 1.94252 124.081L1.78796 124.854H0.5L0.757593 118.775L0.603037 112.129H1.891L2.4577 114.55C2.8355 116.061 3.50524 117.538 4.46692 118.981C5.46295 120.423 6.69939 121.608 8.17625 122.535C9.68746 123.463 11.4047 123.926 13.3281 123.926C14.3928 123.926 15.406 123.703 16.3677 123.257C17.3637 122.776 18.1708 122.054 18.7891 121.093C19.4416 120.131 19.7679 118.878 19.7679 117.332C19.7679 115.031 19.0123 113.176 17.5011 111.768C16.0242 110.36 13.9635 109.02 11.3189 107.75L9.1551 106.719C6.57918 105.483 4.65582 104.126 3.38503 102.649C2.14859 101.138 1.53037 99.2148 1.53037 96.8793C1.53037 95.059 1.97686 93.4448 2.86985 92.0366C3.76284 90.6284 4.98211 89.5294 6.52766 88.7394C8.10756 87.9495 9.91071 87.5545 11.9371 87.5545C13.3453 87.5545 14.5302 87.7434 15.4919 88.1212C16.4536 88.499 17.2092 88.8253 17.7587 89.1001C18.6517 89.5466 19.3558 89.7698 19.8709 89.7698C20.4205 89.7698 20.7468 89.2374 20.8498 88.1727H22.1378L21.9832 93.1185L22.0862 98.1157H20.7983C20.5922 96.1924 20.0598 94.561 19.2012 93.2215C18.3426 91.8477 17.295 90.8002 16.0586 90.0789C14.8565 89.3577 13.5685 88.997 12.1947 88.997C10.1683 88.997 8.51971 89.5809 7.24892 90.7486C6.01248 91.9164 5.39426 93.4104 5.39426 95.2307C5.39426 97.1884 6.02965 98.734 7.30044 99.8674C8.57123 100.966 10.2198 102.014 12.2462 103.01L14.3585 104.04C16.2475 104.968 17.8617 105.929 19.2012 106.925C20.575 107.887 21.6226 109.02 22.3438 110.326C23.0994 111.631 23.4772 113.262 23.4772 115.22C23.4772 117.246 23.0136 119.032 22.0862 120.578C21.1933 122.123 19.974 123.325 18.4284 124.184C16.9172 125.008 15.2171 125.42 13.3281 125.42Z" fill="#02161D"/>
<path d="M37.3124 125.42C35.6294 125.42 34.2556 124.922 33.1909 123.926C32.1605 122.896 31.6453 121.23 31.6453 118.929V103.68H27.833V102.392L29.224 102.289C30.6321 102.186 31.6969 101.619 32.4181 100.589C33.1737 99.5239 33.6717 98.0471 33.9121 96.1581H35.2516V102.392H41.846V103.68H35.2516V119.135C35.2516 122.158 36.3163 123.669 38.4458 123.669C39.3388 123.669 40.06 123.377 40.6096 122.793C41.1591 122.175 41.6571 121.419 42.1036 120.526L43.237 121.093C43.0309 121.608 42.7733 122.089 42.4642 122.535C42.1894 122.947 41.9147 123.308 41.6399 123.617C41.056 124.27 40.3863 124.733 39.6307 125.008C38.9094 125.283 38.1367 125.42 37.3124 125.42Z" fill="#02161D"/>
<path d="M56.0067 125.42C53.7743 125.42 52.0055 124.871 50.7003 123.772C49.4295 122.638 48.7941 120.973 48.7941 118.775V108.78C48.7941 107.234 48.6911 106.135 48.485 105.483C48.279 104.796 47.9012 104.349 47.3516 104.143C46.8364 103.937 46.0808 103.783 45.0848 103.68L44.2605 103.577V102.392L50.5973 102.546L52.4004 102.495V118.568C52.4004 120.251 52.8298 121.539 53.6884 122.432C54.547 123.325 55.7148 123.772 57.1917 123.772C58.4624 123.772 59.5787 123.497 60.5404 122.947C61.5364 122.364 62.3778 121.625 63.0648 120.732C63.786 119.839 64.3527 118.929 64.7649 118.002V108.78C64.7649 107.234 64.6618 106.135 64.4558 105.483C64.2497 104.796 63.8719 104.349 63.3224 104.143C62.8072 103.937 62.0516 103.783 61.0555 103.68L60.2312 103.577V102.392L66.568 102.546L68.3712 102.495V119.135C68.3712 120.44 68.5257 121.419 68.8348 122.072C69.1783 122.69 69.6591 123.102 70.2773 123.308C70.9299 123.514 71.7199 123.617 72.6472 123.617V124.802C71.239 124.802 69.9511 124.819 68.7833 124.854C67.6156 124.888 66.2761 125.043 64.7649 125.317V120.578C64.4214 121.127 64.0608 121.608 63.683 122.02C62.79 123.016 61.7081 123.84 60.4373 124.493C59.1665 125.111 57.6897 125.42 56.0067 125.42Z" fill="#02161D"/>
<path d="M85.9539 125.42C83.9962 125.42 82.2274 124.888 80.6475 123.823C79.0676 122.759 77.8139 121.316 76.8866 119.496C75.9593 117.641 75.4956 115.598 75.4956 113.365C75.4956 111.133 75.9593 109.123 76.8866 107.337C77.8139 105.552 79.0847 104.126 80.699 103.061C82.3132 101.997 84.1335 101.464 86.1599 101.464C87.6025 101.464 88.9248 101.774 90.1269 102.392C91.3289 102.976 92.325 103.645 93.1149 104.401V93.4791C93.1149 91.6931 92.7371 90.5597 91.9815 90.0789C91.2603 89.5637 90.2471 89.3061 88.9419 89.3061H88.5813V88.1212C89.9895 88.1212 91.3461 88.0869 92.6513 88.0182C93.9564 87.9151 95.313 87.7434 96.7212 87.503V119.238C96.7212 121.162 97.0818 122.381 97.8031 122.896C98.5587 123.411 99.6234 123.669 100.997 123.669V124.854H98.885C98.1294 124.854 97.391 124.871 96.6697 124.905C95.9484 124.974 95.1413 125.094 94.2483 125.266L93.5786 121.66C92.6513 122.759 91.535 123.669 90.2299 124.39C88.9591 125.077 87.5338 125.42 85.9539 125.42ZM79.6171 113.365C79.6171 115.357 79.8575 117.143 80.3383 118.723C80.8535 120.303 81.6091 121.556 82.6052 122.484C83.6355 123.411 84.9235 123.875 86.469 123.875C87.9459 123.875 89.2167 123.549 90.2814 122.896C91.3805 122.209 92.325 121.385 93.1149 120.423V106.513C92.5311 105.62 91.6552 104.813 90.4875 104.092C89.3197 103.371 88.0318 103.01 86.6236 103.01C85.0437 103.01 83.7386 103.474 82.7082 104.401C81.6778 105.294 80.905 106.53 80.3899 108.11C79.8747 109.656 79.6171 111.407 79.6171 113.365Z" fill="#02161D"/>
<path d="M102.693 125.008V123.823L103.518 123.72C104.514 123.583 105.269 123.428 105.784 123.257C106.334 123.051 106.712 122.621 106.918 121.969C107.124 121.282 107.227 120.166 107.227 118.62V107.75C107.227 105.964 106.849 104.83 106.094 104.349C105.372 103.834 104.359 103.577 103.054 103.577H102.693V102.392C104.102 102.392 105.458 102.357 106.763 102.289C108.068 102.186 109.425 102.014 110.833 101.774V118.62C110.833 120.166 110.936 121.282 111.142 121.969C111.348 122.621 111.709 123.051 112.224 123.257C112.774 123.428 113.547 123.583 114.543 123.72L115.367 123.823V125.008L109.03 124.854L102.693 125.008ZM108.412 95.7459C107.519 95.7459 106.815 95.4368 106.3 94.8186C105.784 94.2004 105.527 93.4619 105.527 92.6033C105.527 91.7103 105.784 90.9719 106.3 90.388C106.815 89.7698 107.519 89.4607 108.412 89.4607C109.408 89.4607 110.129 89.7698 110.576 90.388C111.057 90.9719 111.297 91.7103 111.297 92.6033C111.297 93.4619 111.057 94.2004 110.576 94.8186C110.129 95.4368 109.408 95.7459 108.412 95.7459Z" fill="#02161D"/>
<path d="M129.492 125.42C127.225 125.42 125.251 124.94 123.568 123.978C121.885 122.982 120.562 121.625 119.601 119.908C118.673 118.156 118.21 116.164 118.21 113.932C118.21 111.528 118.725 109.398 119.755 107.544C120.786 105.655 122.159 104.178 123.877 103.113C125.628 102.014 127.552 101.464 129.647 101.464C132.291 101.464 134.352 102.306 135.829 103.989C137.34 105.672 138.096 107.887 138.096 110.635C138.096 111.047 138.079 111.39 138.044 111.665C138.01 111.94 137.976 112.129 137.941 112.232H122.383C122.348 112.713 122.331 113.193 122.331 113.674C122.331 115.495 122.623 117.195 123.207 118.775C123.791 120.32 124.667 121.556 125.834 122.484C127.036 123.411 128.496 123.875 130.213 123.875C131.828 123.875 133.253 123.428 134.489 122.535C135.76 121.608 136.739 120.251 137.426 118.465L138.662 118.929C137.22 123.257 134.163 125.42 129.492 125.42ZM129.647 102.752C127.517 102.752 125.852 103.508 124.649 105.019C123.482 106.53 122.76 108.54 122.486 111.047H129.029C130.574 111.047 131.742 110.875 132.532 110.532C133.356 110.154 133.906 109.707 134.18 109.192C134.49 108.643 134.644 108.11 134.644 107.595C134.644 106.084 134.129 104.899 133.098 104.04C132.068 103.182 130.918 102.752 129.647 102.752Z" fill="#02161D"/>
<path d="M151.365 125.42C150.06 125.42 148.944 125.266 148.016 124.957C147.123 124.682 146.419 124.424 145.904 124.184C145.355 123.909 145.011 123.772 144.874 123.772C144.736 123.772 144.616 123.84 144.513 123.978C144.444 124.081 144.359 124.373 144.255 124.854H143.071L143.277 121.453L143.431 117.074H144.565L144.616 117.95C144.685 118.912 144.994 119.874 145.543 120.835C146.127 121.797 146.917 122.604 147.913 123.257C148.909 123.909 150.06 124.235 151.365 124.235C152.773 124.235 153.907 123.875 154.765 123.154C155.624 122.432 156.053 121.436 156.053 120.166C156.053 119.066 155.607 118.139 154.714 117.384C153.855 116.628 152.653 115.958 151.107 115.374L149.253 114.653C147.467 113.966 146.11 113.108 145.183 112.077C144.29 111.047 143.843 109.724 143.843 108.11C143.843 106.736 144.152 105.569 144.771 104.607C145.423 103.611 146.265 102.838 147.295 102.289C148.36 101.739 149.493 101.464 150.695 101.464C151.554 101.464 152.275 101.567 152.859 101.774C153.477 101.98 153.992 102.186 154.405 102.392C154.748 102.563 155.04 102.649 155.28 102.649C155.624 102.649 155.899 102.289 156.105 101.567L157.238 101.619L157.032 104.968V108.574H155.847C155.607 106.96 155.057 105.569 154.199 104.401C153.34 103.199 152.103 102.598 150.489 102.598C149.356 102.598 148.394 102.958 147.604 103.68C146.849 104.401 146.471 105.311 146.471 106.41C146.471 107.475 146.866 108.368 147.656 109.089C148.48 109.776 149.596 110.394 151.004 110.944L153.014 111.717C155.109 112.506 156.551 113.468 157.341 114.602C158.165 115.701 158.578 117.023 158.578 118.568C158.578 120.389 157.959 121.986 156.723 123.36C155.486 124.733 153.701 125.42 151.365 125.42Z" fill="#02161D"/>
<path d="M176.313 125.008V123.72L177.343 123.617C178.545 123.48 179.455 123.308 180.074 123.102C180.726 122.862 181.173 122.381 181.413 121.66C181.654 120.904 181.774 119.685 181.774 118.002V95.1277C181.774 93.4104 181.654 92.1912 181.413 91.4699C181.173 90.7486 180.726 90.285 180.074 90.0789C179.455 89.8385 178.545 89.6496 177.343 89.5122L176.313 89.4092V88.1212L183.938 88.2758H190.944C193.005 88.2758 194.928 88.4131 196.714 88.6879C198.5 88.9283 200.063 89.4092 201.402 90.1304C202.742 90.8173 203.789 91.8305 204.545 93.17C205.301 94.5095 205.678 96.2439 205.678 98.3733C205.678 101.43 204.528 103.903 202.227 105.792C199.925 107.681 196.577 108.625 192.181 108.625H186.153V118.002C186.153 119.685 186.29 120.904 186.565 121.66C186.874 122.381 187.406 122.862 188.162 123.102C188.918 123.308 189.982 123.48 191.356 123.617L192.49 123.72V125.008L183.783 124.854L176.313 125.008ZM192.953 89.7183H186.153V107.08H192.181C194.55 107.08 196.354 106.736 197.59 106.05C198.826 105.363 199.668 104.367 200.114 103.061C200.561 101.756 200.784 100.194 200.784 98.3733C200.784 96.4156 200.527 94.8701 200.011 93.7367C199.53 92.5689 198.878 91.6931 198.054 91.1093C197.264 90.5254 196.405 90.1476 195.478 89.9759C194.585 89.8041 193.743 89.7183 192.953 89.7183Z" fill="#02161D"/>
<path d="M208.397 125.008V123.823L209.221 123.72C210.217 123.583 210.973 123.428 211.488 123.257C212.037 123.051 212.415 122.621 212.621 121.969C212.827 121.282 212.93 120.166 212.93 118.62V107.904C212.93 106.565 212.741 105.586 212.364 104.968C212.02 104.349 211.505 103.972 210.818 103.834C210.131 103.663 209.324 103.577 208.397 103.577V102.392C209.805 102.392 211.162 102.34 212.467 102.237C213.772 102.134 215.129 101.98 216.537 101.774L215.97 107.698H216.176C216.932 105.397 217.859 103.783 218.958 102.855C220.057 101.928 221.242 101.464 222.513 101.464C223.955 101.464 224.917 101.825 225.398 102.546C225.879 103.233 226.119 103.903 226.119 104.556C226.119 105.311 225.896 105.929 225.449 106.41C225.003 106.891 224.402 107.131 223.646 107.131C222.925 107.131 222.375 106.96 221.998 106.616C221.62 106.273 221.431 105.878 221.431 105.431C221.431 105.088 221.465 104.762 221.534 104.452C221.637 104.143 221.689 103.903 221.689 103.731C221.689 103.388 221.448 103.216 220.967 103.216C220.486 103.216 219.971 103.439 219.422 103.886C218.907 104.332 218.46 104.95 218.082 105.74C217.773 106.393 217.481 107.114 217.206 107.904C216.932 108.694 216.708 109.553 216.537 110.48V118.62C216.537 120.166 216.64 121.282 216.846 121.969C217.052 122.621 217.412 123.051 217.928 123.257C218.477 123.428 219.25 123.583 220.246 123.72L221.07 123.823V125.008L214.734 124.854L208.397 125.008Z" fill="#02161D"/>
<path d="M240.793 125.42C238.595 125.42 236.586 124.888 234.766 123.823C232.98 122.759 231.554 121.333 230.49 119.547C229.459 117.727 228.944 115.718 228.944 113.52C228.944 111.253 229.459 109.209 230.49 107.389C231.554 105.569 232.98 104.126 234.766 103.061C236.586 101.997 238.595 101.464 240.793 101.464C243.026 101.464 245.035 101.997 246.821 103.061C248.607 104.126 250.015 105.569 251.046 107.389C252.11 109.209 252.643 111.253 252.643 113.52C252.643 115.718 252.11 117.727 251.046 119.547C250.015 121.333 248.607 122.759 246.821 123.823C245.035 124.888 243.026 125.42 240.793 125.42ZM240.793 124.132C242.648 124.132 244.142 123.669 245.276 122.741C246.409 121.78 247.233 120.509 247.748 118.929C248.264 117.315 248.521 115.512 248.521 113.52C248.521 111.459 248.264 109.621 247.748 108.007C247.233 106.393 246.409 105.122 245.276 104.195C244.142 103.233 242.648 102.752 240.793 102.752C238.939 102.752 237.445 103.233 236.311 104.195C235.178 105.122 234.354 106.393 233.838 108.007C233.323 109.621 233.066 111.459 233.066 113.52C233.066 115.512 233.323 117.315 233.838 118.929C234.354 120.509 235.178 121.78 236.311 122.741C237.445 123.669 238.939 124.132 240.793 124.132Z" fill="#02161D"/>
<path d="M257.63 140C256.016 140 254.762 139.657 253.869 138.97C252.976 138.317 252.53 137.441 252.53 136.342C252.53 135.552 252.77 134.865 253.251 134.281C253.697 133.732 254.367 133.457 255.26 133.457C256.05 133.457 256.617 133.68 256.96 134.127C257.304 134.573 257.475 135.037 257.475 135.518C257.475 135.655 257.458 135.81 257.424 135.982C257.389 136.153 257.338 136.325 257.269 136.497C257.132 136.909 257.063 137.252 257.063 137.527C257.063 137.974 257.201 138.317 257.475 138.557C257.784 138.798 258.128 138.918 258.506 138.918C259.296 138.918 259.862 138.592 260.206 137.939C260.584 137.287 260.824 136.462 260.927 135.466C261.03 134.505 261.082 133.577 261.082 132.684V107.595C261.082 106.359 260.893 105.466 260.515 104.916C260.172 104.332 259.656 103.972 258.969 103.834C258.282 103.663 257.475 103.577 256.548 103.577V102.392C257.956 102.392 259.313 102.323 260.618 102.186C261.923 102.048 263.28 101.859 264.688 101.619V132.684C264.688 134.883 264.018 136.651 262.679 137.991C261.339 139.33 259.656 140 257.63 140ZM262.473 96.055C261.58 96.055 260.876 95.7459 260.36 95.1277C259.845 94.5095 259.588 93.771 259.588 92.9124C259.588 92.0194 259.845 91.281 260.36 90.6971C260.876 90.0789 261.58 89.7698 262.473 89.7698C263.469 89.7698 264.19 90.0789 264.636 90.6971C265.117 91.281 265.358 92.0194 265.358 92.9124C265.358 93.771 265.117 94.5095 264.636 95.1277C264.19 95.7459 263.469 96.055 262.473 96.055Z" fill="#02161D"/>
<path d="M282.79 125.42C280.523 125.42 278.548 124.94 276.865 123.978C275.182 122.982 273.86 121.625 272.898 119.908C271.971 118.156 271.507 116.164 271.507 113.932C271.507 111.528 272.022 109.398 273.053 107.544C274.083 105.655 275.457 104.178 277.174 103.113C278.926 102.014 280.849 101.464 282.944 101.464C285.589 101.464 287.65 102.306 289.127 103.989C290.638 105.672 291.393 107.887 291.393 110.635C291.393 111.047 291.376 111.39 291.342 111.665C291.308 111.94 291.273 112.129 291.239 112.232H275.68C275.646 112.713 275.629 113.193 275.629 113.674C275.629 115.495 275.921 117.195 276.505 118.775C277.088 120.32 277.964 121.556 279.132 122.484C280.334 123.411 281.794 123.875 283.511 123.875C285.125 123.875 286.551 123.428 287.787 122.535C289.058 121.608 290.037 120.251 290.724 118.465L291.96 118.929C290.518 123.257 287.461 125.42 282.79 125.42ZM282.944 102.752C280.815 102.752 279.149 103.508 277.947 105.019C276.779 106.53 276.058 108.54 275.783 111.047H282.326C283.872 111.047 285.039 110.875 285.829 110.532C286.654 110.154 287.203 109.707 287.478 109.192C287.787 108.643 287.942 108.11 287.942 107.595C287.942 106.084 287.426 104.899 286.396 104.04C285.366 103.182 284.215 102.752 282.944 102.752Z" fill="#02161D"/>
<path d="M307.445 125.42C305.143 125.42 303.134 124.922 301.417 123.926C299.7 122.93 298.377 121.574 297.45 119.856C296.523 118.139 296.059 116.181 296.059 113.983C296.059 111.579 296.591 109.433 297.656 107.544C298.721 105.655 300.163 104.178 301.984 103.113C303.804 102.014 305.865 101.464 308.166 101.464C309.265 101.464 310.398 101.636 311.566 101.98C312.734 102.323 313.713 102.838 314.503 103.525C315.327 104.212 315.739 105.054 315.739 106.05C315.739 106.805 315.499 107.441 315.018 107.956C314.537 108.437 313.953 108.677 313.266 108.677C312.373 108.677 311.704 108.419 311.257 107.904C310.811 107.389 310.587 106.874 310.587 106.359C310.587 106.084 310.604 105.843 310.639 105.637C310.708 105.431 310.759 105.242 310.793 105.071C310.862 104.899 310.914 104.727 310.948 104.556C310.982 104.349 310.999 104.143 310.999 103.937C310.999 103.456 310.639 103.147 309.918 103.01C309.231 102.838 308.63 102.752 308.114 102.752C305.71 102.752 303.787 103.766 302.344 105.792C300.902 107.784 300.181 110.429 300.181 113.726C300.181 115.546 300.49 117.229 301.108 118.775C301.726 120.32 302.619 121.556 303.787 122.484C304.989 123.411 306.466 123.875 308.217 123.875C309.66 123.875 311.034 123.48 312.339 122.69C313.644 121.866 314.589 120.475 315.172 118.517L316.409 118.929C315.756 121.299 314.589 122.982 312.906 123.978C311.223 124.94 309.402 125.42 307.445 125.42Z" fill="#02161D"/>
<path d="M328.965 125.42C327.282 125.42 325.909 124.922 324.844 123.926C323.813 122.896 323.298 121.23 323.298 118.929V103.68H319.486V102.392L320.877 102.289C322.285 102.186 323.35 101.619 324.071 100.589C324.827 99.5239 325.325 98.0471 325.565 96.1581H326.905V102.392H333.499V103.68H326.905V119.135C326.905 122.158 327.969 123.669 330.099 123.669C330.992 123.669 331.713 123.377 332.262 122.793C332.812 122.175 333.31 121.419 333.757 120.526L334.89 121.093C334.684 121.608 334.426 122.089 334.117 122.535C333.842 122.947 333.568 123.308 333.293 123.617C332.709 124.27 332.039 124.733 331.284 125.008C330.562 125.283 329.79 125.42 328.965 125.42Z" fill="#02161D"/>
</svg>
